<!--?xml version="1.0" encoding="utf-8"?-->
<!-- Generator: Adobe Illustrator 18.1.1, SVG Export Plug-In . SVG Version: 6.00 Build 0)  -->

<svg version="1.1" id="_x31_0" xmlns="http://www.w3.org/2000/svg" xmlns:xlink="http://www.w3.org/1999/xlink" x="0px" y="0px" viewBox="0 0 512 512" style="width: 16px; height: 16px; opacity: 1;" xml:space="preserve">
<style type="text/css">
	.st0{fill:#374149;}
</style>
<g>
	<path class="st0" d="M406.352,246.414v-0.198c-13.859,11.726-26.879,22.842-37.385,31.824v153.422
		c0,14.54-11.804,26.344-26.344,26.344H175.041c-9.518,0-18.957-0.993-28.017-2.818v-48.196v-37.08v-4.644
		c-0.078-9.365-7.614-16.826-16.979-16.826H40.278c-1.829-9.138-2.818-18.503-2.818-28.021V80.537
		c0-14.466,11.8-26.266,26.344-26.266h278.82c14.54,0,26.344,11.8,26.344,26.266V83.2l-0.112,1.951
		c0.038-0.037,0.074-0.07,0.112-0.111v0.219c9.744-10.432,20.102-20.328,30.682-29.314c0.383-0.379,0.841-0.684,1.22-0.989
		c-9.745-22.385-32.285-38.144-58.246-38.144H63.803C28.626,16.812,0,45.439,0,80.537v239.684c0,11.956,1.294,23.986,3.654,35.634
		c14.239,68.22,67.458,121.517,135.83,135.755c11.574,2.361,23.526,3.577,35.557,3.577h167.582
		c35.177,0,63.729-28.552,63.729-63.726V318.668l0.097-72.335C406.415,246.358,406.386,246.388,406.352,246.414z" style="fill: rgb(75, 75, 75);"></path>
	<path class="st0" d="M305.413,282.115c-4.588-3.465-10.183-8.435-15.752-13.994c-5.569-5.573-10.543-11.16-14.005-15.737
		c-0.728-0.963-1.684-2.275-2.628-3.758c-0.108-0.19-0.201-0.313-0.309-0.513l-0.007,0.007c-0.007-0.015-0.018-0.026-0.026-0.041
		c-0.003,0.003-0.007,0.007-0.014,0.018c-0.019-0.034-0.038-0.059-0.056-0.093c-23.087,22.707-48.107,36.994-67.231,45.378
		c-1.825,16.893-5.914,33.493-10.138,47.315c-0.138,0.434-0.272,0.914-0.409,1.342c-0.056,0.19-0.116,0.354-0.171,0.539
		c-2.651,8.209-5.328,15.235-7.54,20.41c-1.587-0.008-3.242,0.55-4.531,1.84c-2.182,2.182-2.446,5.379-0.863,7.558
		c0.094,0.138,0.164,0.286,0.25,0.423c0.022,0.038,0.026,0.074,0.048,0.112l0.007-0.011c0.011,0.011,0.015,0.026,0.026,0.041
		l0.015-0.015c0.026,0.03,0.033,0.063,0.059,0.094l8.662-8.659c-0.071-0.074-0.149-0.138-0.219-0.204l41.352-43.002
		c-2.313-4.633-1.246-10.767,3.026-15.034c5.209-5.205,13.202-5.651,17.849-1.004c4.651,4.647,4.205,12.633-1.007,17.838
		c-4.268,4.268-10.402,5.334-15.042,3.026l-25.426,24.414l-23.801,22.722l0.145-0.011l-0.108,0.108
		c0.086-0.034,0.178-0.074,0.272-0.115l0.13-0.004l-2.758,2.762l-0.014,0.008v0.003l-0.105,0.108
		c2.138,2.134,5.807,1.922,8.198-0.461c1.51-1.51,2.142-3.514,1.889-5.328c15.15-5.784,41.914-14.71,69.376-17.674
		c7.525-17.116,19.823-38.946,38.608-59.889c2.082-2.305,4.202-4.614,6.45-6.896c0.112-0.104,0.201-0.223,0.316-0.327
		c0,0-0.003-0.004-0.007-0.004c0.011-0.01,0.022-0.022,0.034-0.033c-0.008-0.008-0.011-0.011-0.018-0.015
		c0.026-0.026,0.044-0.048,0.07-0.078C308.153,284.182,306.55,282.981,305.413,282.115z" style="fill: rgb(75, 75, 75);"></path>
	<path class="st0" d="M503.89,54.744l-0.532-0.536c-5.427-5.29-12.629-8.086-20.83-8.086c-4.54,0-9.466,0.847-14.648,2.513
		c-13.502,4.342-29.812,14.607-48.486,30.486c-12.919,10.986-25.351,23.35-36.928,36.723
		c-2.215,2.514-96.549,112.922-100.181,117.034c-6.409,6.803,0.045,15.354,2.164,18.161c2.617,3.461,6.35,7.662,10.514,11.822
		c4.164,4.163,8.369,7.893,11.834,10.506c2.286,1.729,6.55,4.941,11.327,4.938c2.581,0.003,4.882-0.926,6.778-2.706
		c3.216-2.844,117.305-100.014,117.305-100.014c13.395-11.585,25.763-24.013,36.764-36.924
		c15.894-18.656,26.158-34.958,30.508-48.45C515.433,71.727,509.726,60.719,503.89,54.744z M348.129,229.193l-31.139,27.385
		c-1.881-1.524-4.684-3.959-8.231-7.502c-3.539-3.535-5.978-6.342-7.506-8.223l27.444-31.091l18.202,18.194L348.129,229.193z" style="fill: rgb(75, 75, 75);"></path>
</g>
</svg>
